<svg width="342" height="35" viewBox="0 0 342 35" fill="none" xmlns="http://www.w3.org/2000/svg">
<path style="fill:#000000" opacity="0.9" d="M35.272 34H24.808L22.84 28.144H12.376L10.456 34H0.76L11.752 1.072H24.28L35.272 34ZM17.512 11.2L14.68 21.184H20.536L17.752 11.2H17.512ZM55.2873 1.072C57.1113 1.072 58.7913 1.52 60.3273 2.416C61.8953 3.312 63.1273 4.544 64.0233 6.112C64.9193 7.648 65.3673 9.328 65.3673 11.152V12.208C65.3673 14.032 64.9193 15.728 64.0233 17.296C63.1273 18.832 61.8953 20.048 60.3273 20.944C58.7913 21.84 57.1113 22.288 55.2873 22.288H47.8473V34H37.7673V1.072H55.2873ZM47.8473 14.944H52.2633C53.1593 14.944 53.8633 14.656 54.3753 14.08C54.8873 13.472 55.1433 12.8 55.1433 12.064V11.488C55.1433 10.752 54.8873 10.096 54.3753 9.52C53.8953 8.912 53.1913 8.608 52.2633 8.608H47.8473V14.944ZM86.2248 1.072C88.0488 1.072 89.7288 1.52 91.2648 2.416C92.8328 3.312 94.0648 4.544 94.9608 6.112C95.8568 7.648 96.3048 9.328 96.3048 11.152V12.208C96.3048 14.032 95.8568 15.728 94.9608 17.296C94.0648 18.832 92.8328 20.048 91.2648 20.944C89.7288 21.84 88.0488 22.288 86.2248 22.288H78.7848V34H68.7048V1.072H86.2248ZM78.7848 14.944H83.2008C84.0968 14.944 84.8008 14.656 85.3128 14.08C85.8248 13.472 86.0808 12.8 86.0808 12.064V11.488C86.0808 10.752 85.8248 10.096 85.3128 9.52C84.8328 8.912 84.1288 8.608 83.2008 8.608H78.7848V14.944ZM113.466 0.591998C116.186 0.591998 118.57 1.184 120.618 2.368C122.666 3.552 124.25 5.264 125.37 7.504C126.522 9.712 127.098 12.336 127.098 15.376V19.696C127.098 22.736 126.522 25.376 125.37 27.616C124.25 29.824 122.666 31.52 120.618 32.704C118.57 33.888 116.186 34.48 113.466 34.48C110.746 34.48 108.362 33.888 106.314 32.704C104.266 31.52 102.666 29.824 101.514 27.616C100.394 25.376 99.8343 22.736 99.8343 19.696V15.376C99.8343 12.336 100.394 9.712 101.514 7.504C102.666 5.264 104.266 3.552 106.314 2.368C108.362 1.184 110.746 0.591998 113.466 0.591998ZM113.466 4.864C110.65 4.864 108.458 5.76 106.89 7.552C105.322 9.344 104.538 11.952 104.538 15.376V19.696C104.538 23.12 105.29 25.728 106.794 27.52C108.33 29.312 110.554 30.208 113.466 30.208C116.282 30.208 118.474 29.328 120.042 27.568C121.61 25.776 122.394 23.152 122.394 19.696V15.376C122.394 11.952 121.626 9.344 120.09 7.552C118.586 5.76 116.378 4.864 113.466 4.864ZM144.975 1.072V5.344H141.135V29.728H144.975V34H132.591V29.728H136.431V5.344H132.591V1.072H144.975ZM176.427 1.072V34H172.443L156.363 9.904L156.219 9.952V34H151.947V1.072H156.075L172.011 24.88L172.155 24.832V1.072H176.427ZM207.403 1.072V5.344H197.083V34H192.379V5.344H182.059V1.072H207.403ZM249.217 1.072V34H244.513V6.592H244.225L232.849 34H228.865L217.537 6.592H217.297V34H213.025V1.072H220.417L231.025 26.992H231.217L241.873 1.072H249.217ZM279.672 1.072L279.048 5.344H262.776V15.04H277.512V19.312H262.776V29.728H279.336L280.008 34H258.072V1.072H279.672ZM311.005 1.072V34H307.021L290.941 9.904L290.797 9.952V34H286.525V1.072H290.653L306.589 24.88L306.733 24.832V1.072H311.005ZM341.982 1.072V5.344H331.662V34H326.958V5.344H316.638V1.072H341.982Z" fill="white"/>
</svg>
